<svg version="1.1" viewBox="0 0 350 77.6" xmlns="http://www.w3.org/2000/svg">
 <g transform="matrix(1.33 0 0 -1.33 -447 598)">
  <g>
   <path d="m371 424-23.5 1.01 23-4.81c13.6-2.47 24.9-7 34-13.6 4.46-3.28 7.64-6.37 9.53-9.25l4.12-6.37-1.15 17.9 16.7 5.8-6.21 1.56c-3.42 0.855-7.16 1.66-11.2 2.43l-1.28 19.8-12.3-17.5c-10.6 1.66-21.3 2.66-31.8 2.98" fill="#e40046"/>
   <path d="m361 448c-2.08 0-3.75-0.702-5.02-2.11-0.718-0.809-1.44-2.12-2.15-3.92l-5.61-14.4 18-0.801 2.08 5.27c0.107 0.336 0.314 0.673 0.62 1.01 0.626 0.687 1.45 1.03 2.47 1.03h18.4l-1.33-3.25h14.7l6.71 17.2h-48.9zm79.2 0-11.5-29.4 12.9-3.18-16.4-5.68-2.22-5.75c-0.901-2.29-1.47-4-1.69-5.13-0.306-1.89-0.123-3.47 0.549-4.74 1.08-1.85 3.18-2.77 6.28-2.77h35.1c3.65 0 6.54 1.2 8.66 3.6 1.27 1.39 2.53 3.78 3.78 7.17l18 45.9h-18.4l-15.2-38.9c-0.55-1.39-1.02-2.3-1.42-2.72-0.656-0.719-1.66-1.08-3.02-1.08h-11.4c-0.809 0-1.34 0.297-1.6 0.894-0.146 0.351-0.161 0.763-0.0454 1.24l16 40.6h-18.4zm63.7 0c-2.08 0-3.74-0.702-4.99-2.11-0.718-0.809-1.44-2.12-2.18-3.92l-11.3-29h35.1l-3.05-7.72h-20.6l1.19 3.25h-14.4l-4.12-10.5c-0.335-0.917-0.526-1.73-0.571-2.43-0.0458-0.84 0.137-1.62 0.549-2.34 0.718-1.27 2.05-1.9 3.99-1.9h42.1c2.11 0 3.77 0.702 5 2.11 0.718 0.809 1.43 2.12 2.15 3.92l11.6 29.5h-35.2l2.77 7.17h20.7l-1.26-3.25h14.4l3.71 9.46c0.459 1.22 0.756 2.19 0.894 2.91 0.183 1.13 0.0242 2.1-0.48 2.91-0.672 1.27-1.98 1.9-3.92 1.9h-42.1zm67 0-37.2-56.7h20.4l8.04 12.3h17.6v-12.3h17.5v56.7h-26.4zm8.91-17.5v-13h-8.54l8.54 13zm-233-7.4-9.53-24.3v-0.0688c-0.764-2.17-0.718-3.95 0.138-5.34 0.764-1.36 2.09-2.04 3.99-2.04h46.7l6.71 17.2h-15.4l-1.31-3.25h-17c-1.13 0-1.83 0.305-2.11 0.916-0.183 0.443-0.153 0.978 0.0908 1.6l4.6 11.8-16.9 3.53z" fill="#00263a"/>
  </g>
 </g>
</svg>
